# xmcd
# 
# Track frame offsets:
#     150
#     12552
#     23689
#     35138
#     56202
#     69091
#     81702
#     92906
#     102323
#     114817
#     126997
#     138830
#     150934
#     163449
#     173012
#     184547
#     195924
#     209000
#     219555
#     232626
# 
# Disc length: 3226
# 
# Revision: 0
# Processed by: cddbd v1.5.2PL0 Copyright (c) Steve Scherf et al.
# Submitted via: BonkEnc v1.0.15
# 
DISCID=0f0c9814
DTITLE=Various Artist - Country and Western Hits
DYEAR=0
DGENRE=Country
TTITLE0=Johnny Cash - I Walk The Line (Cash) 1956
TTITLE1=Hohnny Horton - The Battle Of New Orleans (Driftwood) 1959
TTITLE2=Don Gibson - Oh Lonesome (Driftwood) 1959
TTITLE3=Marty Robbins - El Paso (Robbins) 1959
TTITLE4=The Browns - The Three Bells (Villard/Reisfeld) 1959
TTITLE5=George Jones - White Lightnin (Richardson) 1959
TTITLE6=Stonewall Jackson - Waterloo (Loudermilk/Wilkin) 1959
TTITLE7=Hank Snow - I'm Moving On (Snow) 1950
TTITLE8=Skeets McDonald - Don' t Let The Stars Get In Your Eyes (Willet) 1952
TTITLE9=Jimmy Heap - Release Me (Miller/Williams/Yount) 1954
TTITLE10="Tennessee" Ernie Ford - Sixteen Tons (Travis) 1955
TTITLE11=Jom Reeves - Mexican Joe (Torok) 1953
TTITLE12=Eddie Arnold - The Cattle Call (Owens) 1955
TTITLE13=Web Pierce - In The Jailhouse Now (Pierce) 1955
TTITLE14=Sonny James - Young Love (Joyner/Cartey) 1956
TTITLE15=Marty Robbins - A White Sport Coat (Robbins) 1957
TTITLE16=Robby Helms - Fraulein (Williams) 1957
TTITLE17=Ferlin Husky - Wings Of A Dove (Ferguson) 1960
TTITLE18=Hank Williams - Jambalaya (Williams) 1952
TTITLE19=Jim Reeves - Billy Bayou (Miller) 1958
EXTD=
EXTT0=
EXTT1=
EXTT2=
EXTT3=
EXTT4=
EXTT5=
EXTT6=
EXTT7=
EXTT8=
EXTT9=
EXTT10=
EXTT11=
EXTT12=
EXTT13=
EXTT14=
EXTT15=
EXTT16=
EXTT17=
EXTT18=
EXTT19=
PLAYORDER=
